<?xml version="1.0" standalone="no"?>
<!DOCTYPE svg PUBLIC "-//W3C//DTD SVG 20010904//EN"
 "http://www.w3.org/TR/2001/REC-SVG-20010904/DTD/svg10.dtd">
<svg version="1.0" xmlns="http://www.w3.org/2000/svg"
 width="667.000000pt" height="380.000000pt" viewBox="0 0 667.000000 380.000000"
 preserveAspectRatio="xMidYMid meet">
<metadata>
Created by potrace 1.15, written by Peter Selinger 2001-2017
</metadata>
<g transform="translate(0.000000,380.000000) scale(0.100000,-0.100000)"
fill="#000000" stroke="none">
<path d="M3644 3400 c0 -129 2 -184 3 -122 l4 112 613 0 c430 0 623 -3 645
-11 18 -7 28 -14 23 -18 -6 -4 -3 -28 9 -66 10 -33 19 -68 19 -77 0 -31 17
-20 23 15 4 17 13 53 21 80 l15 47 -30 0 c-16 0 -44 10 -60 23 l-31 22 -624 3
-623 3 -4 112 c-1 62 -3 6 -3 -123z"/>
<path d="M2550 3515 c0 -120 5 -115 -92 -85 -34 11 -64 20 -65 20 -2 0 -3 -9
-3 -20 0 -20 -7 -20 -447 -20 -247 -1 -468 -5 -492 -9 -25 -5 -54 -20 -69 -35
-22 -22 -27 -37 -30 -96 -3 -45 -1 -70 6 -70 7 0 12 29 14 72 3 70 4 73 37 95
l34 23 478 0 c472 0 477 0 472 -20 -6 -24 -12 -24 65 0 35 11 70 20 78 20 10
0 14 -25 17 -112 1 -62 4 -11 5 115 1 125 0 227 -3 227 -3 0 -5 -47 -5 -105z"/>
<path d="M1242 3067 l-122 -122 123 -123 122 -122 123 123 122 122 -123 123
-122 122 -123 -123z m241 -239 l-118 -118 -117 117 -118 118 117 117 118 118
117 -117 118 -118 -117 -117z"/>
<path d="M1350 3030 l0 -70 -70 0 c-56 0 -70 -3 -70 -15 0 -12 14 -15 70 -15
l70 0 0 -70 c0 -56 3 -70 15 -70 12 0 15 14 15 70 l0 70 70 0 c56 0 70 3 70
15 0 12 -14 15 -70 15 l-70 0 0 70 c0 56 -3 70 -15 70 -12 0 -15 -14 -15 -70z"/>
<path d="M4852 3067 l-122 -122 123 -123 122 -122 123 123 122 122 -123 123
-122 122 -123 -123z m241 -239 l-118 -118 -117 117 -118 118 117 117 118 118
117 -117 118 -118 -117 -117z"/>
<path d="M4960 3030 l0 -70 -70 0 c-56 0 -70 -3 -70 -15 0 -12 14 -15 70 -15
l70 0 0 -70 c0 -56 3 -70 15 -70 12 0 15 14 15 70 l0 70 70 0 c56 0 70 3 70
15 0 12 -14 15 -70 15 l-70 0 0 70 c0 56 -3 70 -15 70 -12 0 -15 -14 -15 -70z"/>
<path d="M6122 3109 c-50 -25 -78 -58 -94 -110 -13 -45 -22 -47 -103 -19 -32
11 -60 20 -62 20 -1 0 -3 -9 -3 -20 0 -20 -7 -20 -315 -20 -203 0 -315 -4
-315 -10 0 -6 112 -10 315 -10 308 0 315 0 315 -20 0 -11 2 -20 3 -20 2 0 30
9 62 20 79 27 92 26 100 -9 11 -51 59 -107 109 -126 164 -63 309 118 212 266
-49 74 -143 98 -224 58z m157 -37 c67 -50 86 -116 52 -186 -24 -48 -82 -86
-135 -86 -48 0 -102 36 -125 83 -26 53 -27 92 -2 137 37 71 148 99 210 52z"/>
<path d="M950 2981 c0 -20 -4 -21 -169 -21 -126 0 -171 3 -174 13 -3 6 -5 -6
-5 -28 0 -22 2 -32 5 -23 4 15 24 17 174 20 l169 3 0 -22 c0 -28 -6 -27 65 -3
32 11 66 20 77 20 39 0 15 16 -49 34 -38 10 -74 20 -80 23 -8 3 -13 -4 -13
-16z"/>
<path d="M1350 2365 c0 -318 0 -325 -20 -325 -11 0 -20 -2 -20 -3 0 -2 9 -30
20 -62 11 -32 20 -66 20 -77 0 -10 5 -18 10 -18 6 0 10 8 10 18 0 11 9 45 20
77 11 32 20 60 20 62 0 1 -9 3 -20 3 -20 0 -20 7 -20 325 0 210 -4 325 -10
325 -6 0 -10 -115 -10 -325z"/>
<path d="M4966 2682 c-4 -7 -16 -42 -26 -77 -18 -64 -18 -65 1 -65 18 0 19
-11 19 -330 0 -213 4 -330 10 -330 6 0 10 117 10 330 0 318 1 330 19 330 18 0
18 3 6 48 -29 101 -31 106 -39 94z"/>
<path d="M1242 1747 l-122 -122 123 -123 122 -122 123 123 122 122 -123 123
-122 122 -123 -123z m241 -239 l-118 -118 -117 117 -118 118 117 117 118 118
117 -117 118 -118 -117 -117z"/>
<path d="M1314 1746 c-86 -39 -108 -152 -40 -215 103 -97 272 20 210 145 -34
69 -107 99 -170 70z m132 -52 c25 -31 32 -91 14 -125 -13 -24 -61 -49 -94 -49
-82 0 -132 87 -92 159 33 59 129 67 172 15z"/>
<path d="M4852 1747 l-122 -122 123 -123 122 -122 123 123 122 122 -123 123
-122 122 -123 -123z m241 -239 l-118 -118 -117 117 -118 118 117 117 118 118
117 -117 118 -118 -117 -117z"/>
<path d="M1688 1656 c-38 -11 -68 -23 -68 -26 0 -3 26 -13 58 -22 32 -9 66
-20 75 -24 13 -4 17 -1 17 15 l0 21 1423 0 1424 0 12 -22 12 -23 -5 23 c-4 20
0 22 40 22 24 0 44 5 44 10 0 6 -22 10 -48 10 -41 0 -51 4 -61 23 l-12 22 5
-22 4 -23 -1419 0 c-1412 0 -1419 0 -1419 20 0 24 3 24 -82 -4z"/>
<path d="M1350 1165 c0 -202 0 -205 -21 -205 -15 0 -19 -5 -15 -15 19 -50 37
-128 32 -141 -3 -9 1 -14 13 -14 14 0 18 5 14 19 -4 16 9 70 35 139 2 7 -4 12
-17 12 -21 0 -21 3 -21 205 0 130 -4 205 -10 205 -6 0 -10 -75 -10 -205z"/>
<path d="M4956 1335 c-4 -19 -11 -35 -16 -35 -5 0 -7 -7 -4 -15 4 -8 2 -15 -2
-15 -5 0 -10 -11 -10 -25 -2 -18 3 -25 17 -25 18 0 19 -11 19 -249 0 -138 -4
-261 -10 -275 -5 -14 -24 -35 -42 -46 -32 -19 -51 -20 -645 -20 l-613 0 0 108
c0 71 -4 112 -12 120 -9 9 -141 11 -543 10 l-530 -3 535 -5 535 -5 5 -235 c3
-130 7 -185 8 -123 l2 112 613 3 c677 3 652 1 691 68 19 32 21 54 24 288 3
246 4 252 24 252 14 0 18 5 15 15 -4 8 -2 17 4 20 5 4 7 11 3 16 -3 5 -10 7
-15 4 -5 -3 -6 1 -3 9 3 9 2 16 -4 16 -5 0 -13 16 -16 35 -4 19 -11 35 -15 35
-5 0 -12 -16 -15 -35z"/>
<path d="M2552 743 c-2 -130 1 -127 -97 -93 -32 11 -60 20 -62 20 -1 0 -3 -9
-3 -20 0 -20 -7 -20 -424 -20 -330 0 -425 3 -429 13 -3 6 -6 2 -6 -10 l-1 -23
430 0 c423 0 430 0 430 -20 0 -24 -5 -24 65 0 98 34 95 36 95 -88 0 -71 4
-112 12 -120 9 -9 141 -11 543 -10 l530 3 -535 5 -535 5 -5 235 c-3 131 -7
185 -8 123z"/>
</g>
</svg>
